<svg width="22" height="20" viewBox="0 0 22 20" fill="none" xmlns="http://www.w3.org/2000/svg">
<path d="M9.89046 0.859336C10.1903 -0.0609409 11.4922 -0.06094 11.7921 0.859337L13.5432 6.23373C13.6773 6.64536 14.061 6.92394 14.494 6.92394H20.1547C21.1241 6.92394 21.5264 8.16497 20.7414 8.73373L16.1666 12.0484C15.8151 12.303 15.668 12.7553 15.8025 13.168L17.5511 18.5346C17.8511 19.4554 16.7978 20.2224 16.0135 19.6542L11.428 16.3318C11.0779 16.0782 10.6046 16.0782 10.2545 16.3318L5.66899 19.6542C4.88474 20.2224 3.83145 19.4554 4.13147 18.5346L5.88004 13.168C6.0145 12.7553 5.86742 12.303 5.51596 12.0484L0.941085 8.73373C0.156078 8.16497 0.558409 6.92394 1.5278 6.92394H7.18856C7.62148 6.92394 8.00525 6.64536 8.13936 6.23373L9.89046 0.859336Z" fill="#070707"/>
</svg>
